<?xml version="1.0" encoding="utf-8"?>
<!-- Generator: Adobe Illustrator 15.0.0, SVG Export Plug-In . SVG Version: 6.00 Build 0)  -->
<!DOCTYPE svg PUBLIC "-//W3C//DTD SVG 1.1//EN" "http://www.w3.org/Graphics/SVG/1.1/DTD/svg11.dtd">
<svg version="1.1"
	 id="svg2" sodipodi:version="0.32" inkscape:version="0.47 r22583" inkscape:output_extension="org.inkscape.output.svg.inkscape" xmlns:inkscape="http://www.inkscape.org/namespaces/inkscape" xmlns:sodipodi="http://sodipodi.sourceforge.net/DTD/sodipodi-0.dtd" xmlns:svg="http://www.w3.org/2000/svg" xmlns:rdf="http://www.w3.org/1999/02/22-rdf-syntax-ns#" xmlns:cc="http://creativecommons.org/ns#" xmlns:dc="http://purl.org/dc/elements/1.1/" sodipodi:docname="youtube.svg"
	 xmlns="http://www.w3.org/2000/svg" xmlns:xlink="http://www.w3.org/1999/xlink" x="0px" y="0px" width="256px" height="256px"
	 viewBox="0 0 256 256" enable-background="new 0 0 256 256" xml:space="preserve">
<path id="rect1942" inkscape:export-xdpi="7.7063322" inkscape:export-ydpi="7.7063322" inkscape:export-filename="C:\Documents and Settings\Molumen\Desktop\path3511111.png" fill="#F57D00" d="
	M210.018,10.505H45.983c-19.599,0-35.487,15.888-35.487,35.487v164.015c0,19.599,15.888,35.486,35.487,35.486h164.033
	c19.604,0,35.487-15.888,37.487-34.819V46.66C245.504,26.394,229.615,10.505,210.018,10.505z"/>
<linearGradient id="SVGID_1_" gradientUnits="userSpaceOnUse" x1="86.4995" y1="-949.167" x2="86.4995" y2="-1076.7955" gradientTransform="matrix(1 0 0 -1 42.5 -938)">
	<stop  offset="0" style="stop-color:#FFFFFF;stop-opacity:0.85"/>
	<stop  offset="0.66" style="stop-color:#FFFFFF;stop-opacity:0"/>
</linearGradient>
<path fill="url(#SVGID_1_)" d="M210.018,10.505H45.983c-19.599,0-35.487,15.889-35.487,35.487v69.409
	c36.33,14.751,76.046,22.896,117.671,22.896c42.263,0,82.558-8.395,119.336-23.576V46.66
	C245.504,26.394,229.615,10.505,210.018,10.505z"/>
<path fill="#FFFFFF" d="M199.162,152.717c-0.053-2.73-0.062-5.189-0.071-7.4c-0.047-10.814-0.079-18.629-5.401-25.503
	c-6.022-7.784-15.318-9.103-22.854-9.328c1.271-5.438,1.639-11.467,1.051-17.983c-0.16-21.703-16.311-37.804-38.722-38.423
	l-0.322-0.009L98.56,54.598l-0.371-0.001c-13.331,0-23.871,3.98-31.326,11.831c-4.611,4.855-9.84,13.337-10.488,27.051h-0.006
	l-0.007,0.398c-0.038,0.939-0.054,1.902-0.048,2.89l-0.867,52.017c-0.065,1.044-0.113,2.1-0.125,3.183
	c-0.874,15.141,2.668,27.061,10.53,35.434c7.859,8.369,19.478,12.61,34.532,12.61c0.324,0,0.652-0.002,0.98-0.006h52.375
	l0.127-0.001c13.428-0.111,24.771-4.546,32.811-12.816c8.023-8.26,12.344-20.022,12.493-34.021l0.003-0.225L199.162,152.717z
	 M101.339,84.063l29.291,0.465c6.902,0.11,12.41,5.794,12.3,12.697c-0.106,6.835-5.684,12.302-12.494,12.302
	c-0.065,0-0.135,0-0.201-0.001l-29.292-0.465c-6.903-0.11-12.41-5.794-12.3-12.697C88.752,89.461,94.431,83.964,101.339,84.063z
	 M156.395,166.343H97.813c-6.643,0-12.06-5.187-12.461-11.728l0.035-2.114c0.67-6.271,5.976-11.158,12.426-11.158h58.582
	c6.903,0,12.5,5.597,12.5,12.5S163.298,166.343,156.395,166.343z"/>
<g>
	
		<linearGradient id="SVGID_2_" gradientUnits="userSpaceOnUse" x1="86.5" y1="-1076.001" x2="86.5" y2="-1183.5122" gradientTransform="matrix(1 0 0 -1 42.5 -938)">
		<stop  offset="0" style="stop-color:#000000;stop-opacity:0.15"/>
		<stop  offset="0.6626" style="stop-color:#000000;stop-opacity:0"/>
	</linearGradient>
	<path fill="url(#SVGID_2_)" d="M10.496,115.401v94.605c0,19.6,15.888,35.486,35.487,35.486h164.033
		c19.604,0,35.488-15.889,37.488-34.819v-95.952c-36.779,15.181-77.074,23.576-119.337,23.576
		C86.542,138.298,46.825,130.152,10.496,115.401z"/>
</g>
<path fill="none" stroke="#F57D00" stroke-width="2" stroke-miterlimit="10" d="M247.503,114.721V46.66
	c-1.999-20.266-17.888-36.155-37.485-36.155H45.982c-19.599,0-35.486,15.889-35.486,35.487v69.409"/>
<g>
	<g>
		<g>
			<path fill="none" stroke="#C46400" stroke-width="2" stroke-miterlimit="10" d="M10.496,115.401v94.605
				c0,19.6,15.888,35.486,35.486,35.486h164.034c19.604,0,35.487-15.889,37.487-34.819v-95.952"/>
		</g>
	</g>
</g>
</svg>
